<?xml version="1.0" encoding="UTF-8" standalone="no"?><svg xmlns="http://www.w3.org/2000/svg" xmlns:xlink="http://www.w3.org/1999/xlink" contentScriptType="application/ecmascript" contentStyleType="text/css" height="358px" preserveAspectRatio="none" style="width:828px;height:358px;background:#FFFFFF;" version="1.1" viewBox="0 0 828 358" width="828px" zoomAndPan="magnify"><defs><filter height="300%" id="fo2b1gg6ahks7" width="300%" x="-1" y="-1"><feGaussianBlur result="blurOut" stdDeviation="2.0"/><feColorMatrix in="blurOut" result="blurOut2" type="matrix" values="0 0 0 0 0 0 0 0 0 0 0 0 0 0 0 0 0 0 .4 0"/><feOffset dx="4.0" dy="4.0" in="blurOut2" result="blurOut3"/><feBlend in="SourceGraphic" in2="blurOut3" mode="normal"/></filter></defs><g><rect fill="none" height="26.2969" style="stroke:none;stroke-width:1.0;" width="141" x="288.5" y="15"/><text fill="#000000" font-family="sans-serif" font-size="14" font-weight="bold" lengthAdjust="spacing" textLength="131" x="293.5" y="32.9951">Directory Layout</text><rect fill="#FEFECE" filter="url(#fo2b1gg6ahks7)" height="36.2969" rx="12.5" ry="12.5" style="stroke:#A80036;stroke-width:1.5;" width="103" x="296" y="178.7813"/><text fill="#000000" font-family="sans-serif" font-size="14" font-weight="bold" lengthAdjust="spacing" textLength="83" x="306" y="201.7764">rust-notes</text><rect fill="#FEFECE" filter="url(#fo2b1gg6ahks7)" height="52.5938" rx="12.5" ry="12.5" style="stroke:#A80036;stroke-width:1.5;" width="249" x="449" y="57.2969"/><text fill="#000000" font-family="sans-serif" font-size="14" font-weight="bold" lengthAdjust="spacing" textLength="29" x="459" y="80.292">md/</text><text fill="#000000" font-family="sans-serif" font-size="14" lengthAdjust="spacing" textLength="229" x="459" y="96.5889">Markdown - contents of the book</text><path d="M399,196.9297 L409,196.9297 C424,196.9297 424,83.5938 439,83.5938 L449,83.5938 " fill="none" style="stroke:#A80036;stroke-width:1.0;"/><rect fill="#FEFECE" filter="url(#fo2b1gg6ahks7)" height="68.8906" rx="12.5" ry="12.5" style="stroke:#A80036;stroke-width:1.5;" width="219" x="449" y="129.8906"/><text fill="#000000" font-family="sans-serif" font-size="14" font-weight="bold" lengthAdjust="spacing" textLength="43" x="459" y="152.8857">docs/</text><text fill="#000000" font-family="sans-serif" font-size="14" lengthAdjust="spacing" textLength="0" x="506" y="152.8857"/><text fill="#000000" font-family="sans-serif" font-size="14" lengthAdjust="spacing" textLength="199" x="459" y="169.1826">copy of generated book html</text><text fill="#000000" font-family="sans-serif" font-size="14" lengthAdjust="spacing" textLength="111" x="459" y="185.4795">checked into git</text><path d="M399,196.9297 L409,196.9297 C424,196.9297 424,164.3359 439,164.3359 L449,164.3359 " fill="none" style="stroke:#A80036;stroke-width:1.0;"/><rect fill="#FEFECE" filter="url(#fo2b1gg6ahks7)" height="117.7813" rx="12.5" ry="12.5" style="stroke:#A80036;stroke-width:1.5;" width="360" x="449" y="218.7813"/><text fill="#000000" font-family="sans-serif" font-size="14" font-weight="bold" lengthAdjust="spacing" textLength="44" x="459" y="241.7764">book/</text><text fill="#000000" font-family="sans-serif" font-size="14" lengthAdjust="spacing" textLength="0" x="507" y="241.7764"/><text fill="#000000" font-family="sans-serif" font-size="14" lengthAdjust="spacing" textLength="118" x="459" y="258.0732">(auto-generated)</text><text fill="#000000" font-family="sans-serif" font-size="14" lengthAdjust="spacing" textLength="75" x="459" y="274.3701">do not edit</text><text fill="#000000" font-family="sans-serif" font-size="14" lengthAdjust="spacing" textLength="153" x="459" y="290.667">generated by mdbook</text><text fill="#000000" font-family="sans-serif" font-size="14" lengthAdjust="spacing" textLength="336" x="463" y="306.9639">we compare to docs/ to see if there are changes</text><text fill="#000000" font-family="sans-serif" font-size="14" lengthAdjust="spacing" textLength="302" x="463" y="323.2607">to the book that need to be published to git</text><path d="M399,196.9297 L409,196.9297 C424,196.9297 424,277.6719 439,277.6719 L449,277.6719 " fill="none" style="stroke:#A80036;stroke-width:1.0;"/><rect fill="#FEFECE" filter="url(#fo2b1gg6ahks7)" height="52.5938" rx="12.5" ry="12.5" style="stroke:#A80036;stroke-width:1.5;" width="236" x="10" y="126.1875"/><text fill="#000000" font-family="sans-serif" font-size="14" font-weight="bold" lengthAdjust="spacing" textLength="30" x="20" y="149.1826">src/</text><text fill="#000000" font-family="sans-serif" font-size="14" lengthAdjust="spacing" textLength="216" x="20" y="165.4795">Supporting rust code examples</text><path d="M296,196.9297 L286,196.9297 C271,196.9297 271,152.4844 256,152.4844 L246,152.4844 " fill="none" style="stroke:#A80036;stroke-width:1.0;"/><rect fill="#FEFECE" filter="url(#fo2b1gg6ahks7)" height="68.8906" rx="12.5" ry="12.5" style="stroke:#A80036;stroke-width:1.5;" width="153" x="93" y="198.7813"/><text fill="#000000" font-family="sans-serif" font-size="14" font-weight="bold" lengthAdjust="spacing" textLength="53" x="103" y="221.7764">target/</text><text fill="#000000" font-family="sans-serif" font-size="14" lengthAdjust="spacing" textLength="0" x="160" y="221.7764"/><text fill="#000000" font-family="sans-serif" font-size="14" lengthAdjust="spacing" textLength="118" x="103" y="238.0732">(auto-generated)</text><text fill="#000000" font-family="sans-serif" font-size="14" lengthAdjust="spacing" textLength="133" x="103" y="254.3701">compiled rust code</text><path d="M296,196.9297 L286,196.9297 C271,196.9297 271,233.2266 256,233.2266 L246,233.2266 " fill="none" style="stroke:#A80036;stroke-width:1.0;"/></g></svg>