<?xml version="1.0" encoding="UTF-8" standalone="no"?><svg xmlns="http://www.w3.org/2000/svg" xmlns:xlink="http://www.w3.org/1999/xlink" contentScriptType="application/ecmascript" contentStyleType="text/css" height="309px" preserveAspectRatio="none" style="width:516px;height:309px;background:#FFFFFF;" version="1.1" viewBox="0 0 516 309" width="516px" zoomAndPan="magnify"><defs><filter height="300%" id="f152u9gvm6v3dm" width="300%" x="-1" y="-1"><feGaussianBlur result="blurOut" stdDeviation="2.0"/><feColorMatrix in="blurOut" result="blurOut2" type="matrix" values="0 0 0 0 0 0 0 0 0 0 0 0 0 0 0 0 0 0 .4 0"/><feOffset dx="4.0" dy="4.0" in="blurOut2" result="blurOut3"/><feBlend in="SourceGraphic" in2="blurOut3" mode="normal"/></filter></defs><g><line style="stroke:#A80036;stroke-width:1.0;stroke-dasharray:5.0,5.0;" x1="232" x2="232" y1="88.2969" y2="225.6953"/><line style="stroke:#A80036;stroke-width:1.0;stroke-dasharray:5.0,5.0;" x1="398" x2="398" y1="88.2969" y2="225.6953"/><a href="http://plantuml.com/sequence" target="_top" title="http://plantuml.com/sequence" xlink:actuate="onRequest" xlink:href="http://plantuml.com/sequence" xlink:show="new" xlink:title="http://plantuml.com/sequence" xlink:type="simple"><text fill="#000000" font-family="sans-serif" font-size="14" lengthAdjust="spacing" textLength="91" x="184" y="84.9951">Component1</text><ellipse cx="232.5" cy="15" fill="#FEFECE" filter="url(#f152u9gvm6v3dm)" rx="8" ry="8" style="stroke:#A80036;stroke-width:2.0;"/><path d="M232.5,23 L232.5,50 M219.5,31 L245.5,31 M232.5,50 L219.5,65 M232.5,50 L245.5,65 " fill="none" filter="url(#f152u9gvm6v3dm)" style="stroke:#A80036;stroke-width:2.0;"/><text fill="#000000" font-family="sans-serif" font-size="14" lengthAdjust="spacing" textLength="91" x="184" y="237.6904">Component1</text><ellipse cx="232.5" cy="250.9922" fill="#FEFECE" filter="url(#f152u9gvm6v3dm)" rx="8" ry="8" style="stroke:#A80036;stroke-width:2.0;"/><path d="M232.5,258.9922 L232.5,285.9922 M219.5,266.9922 L245.5,266.9922 M232.5,285.9922 L219.5,300.9922 M232.5,285.9922 L245.5,300.9922 " fill="none" filter="url(#f152u9gvm6v3dm)" style="stroke:#A80036;stroke-width:2.0;"/></a><text fill="#000000" font-family="sans-serif" font-size="14" lengthAdjust="spacing" textLength="44" x="291" y="84.9951">This is</text><a href="http://goole.com" target="_top" title="http://goole.com" xlink:actuate="onRequest" xlink:href="http://goole.com" xlink:show="new" xlink:title="http://goole.com" xlink:type="simple"><text fill="#0000FF" font-family="sans-serif" font-size="14" lengthAdjust="spacing" text-decoration="underline" textLength="134" x="339" y="84.9951">Google Home Page</text></a><text fill="#000000" font-family="sans-serif" font-size="14" lengthAdjust="spacing" textLength="23" x="477" y="84.9951">link</text><ellipse cx="398.5" cy="15" fill="#FEFECE" filter="url(#f152u9gvm6v3dm)" rx="8" ry="8" style="stroke:#A80036;stroke-width:2.0;"/><path d="M398.5,23 L398.5,50 M385.5,31 L411.5,31 M398.5,50 L385.5,65 M398.5,50 L411.5,65 " fill="none" filter="url(#f152u9gvm6v3dm)" style="stroke:#A80036;stroke-width:2.0;"/><text fill="#000000" font-family="sans-serif" font-size="14" lengthAdjust="spacing" textLength="44" x="291" y="237.6904">This is</text><a href="http://goole.com" target="_top" title="http://goole.com" xlink:actuate="onRequest" xlink:href="http://goole.com" xlink:show="new" xlink:title="http://goole.com" xlink:type="simple"><text fill="#0000FF" font-family="sans-serif" font-size="14" lengthAdjust="spacing" text-decoration="underline" textLength="134" x="339" y="237.6904">Google Home Page</text></a><text fill="#000000" font-family="sans-serif" font-size="14" lengthAdjust="spacing" textLength="23" x="477" y="237.6904">link</text><ellipse cx="398.5" cy="250.9922" fill="#FEFECE" filter="url(#f152u9gvm6v3dm)" rx="8" ry="8" style="stroke:#A80036;stroke-width:2.0;"/><path d="M398.5,258.9922 L398.5,285.9922 M385.5,266.9922 L411.5,266.9922 M398.5,285.9922 L385.5,300.9922 M398.5,285.9922 L411.5,300.9922 " fill="none" filter="url(#f152u9gvm6v3dm)" style="stroke:#A80036;stroke-width:2.0;"/><a href="http://plantuml.com/squence-diagram" target="_top" title="http://plantuml.com/squence-diagram" xlink:actuate="onRequest" xlink:href="http://plantuml.com/squence-diagram" xlink:show="new" xlink:title="http://plantuml.com/squence-diagram" xlink:type="simple"><polygon fill="#A80036" points="386.5,120.4297,396.5,124.4297,386.5,128.4297,390.5,124.4297" style="stroke:#A80036;stroke-width:1.0;"/><line style="stroke:#A80036;stroke-width:1.0;" x1="232.5" x2="392.5" y1="124.4297" y2="124.4297"/><text fill="#000000" font-family="sans-serif" font-size="13" lengthAdjust="spacing" textLength="30" x="239.5" y="119.3638">hello</text></a><a href="http://plantuml.com/squence-diagram" target="_top" title="http://plantuml.com/squence-diagram" xlink:actuate="onRequest" xlink:href="http://plantuml.com/squence-diagram" xlink:show="new" xlink:title="http://plantuml.com/squence-diagram" xlink:type="simple"><path d="M109,103.2969 L109,128.2969 L223,128.2969 L223,113.2969 L213,103.2969 L109,103.2969 " fill="#FBFB77" filter="url(#f152u9gvm6v3dm)" style="stroke:#A80036;stroke-width:1.0;"/><path d="M213,103.2969 L213,113.2969 L223,113.2969 L213,103.2969 " fill="#FBFB77" style="stroke:#A80036;stroke-width:1.0;"/><text fill="#000000" font-family="sans-serif" font-size="13" lengthAdjust="spacing" textLength="93" x="115" y="120.3638">a link plantuml</text></a><a href="http://plantuml.com/start" target="_top" title="http://plantuml.com/start" xlink:actuate="onRequest" xlink:href="http://plantuml.com/start" xlink:show="new" xlink:title="http://plantuml.com/start" xlink:type="simple"><polygon fill="#A80036" points="243.5,159.5625,233.5,163.5625,243.5,167.5625,239.5,163.5625" style="stroke:#A80036;stroke-width:1.0;"/><line style="stroke:#A80036;stroke-width:1.0;" x1="237.5" x2="397.5" y1="163.5625" y2="163.5625"/><text fill="#000000" font-family="sans-serif" font-size="13" lengthAdjust="spacing" textLength="59" x="249.5" y="158.4966">hello with</text></a><a href="http://plantuml.com/start" target="_top" title="Tooltip for message" xlink:actuate="onRequest" xlink:href="http://plantuml.com/start" xlink:show="new" xlink:title="Tooltip for message" xlink:type="simple"><text fill="#0000FF" font-family="sans-serif" font-size="13" lengthAdjust="spacing" text-decoration="underline" textLength="61" x="312.5" y="158.4966">some link</text></a><a href="http://plantuml.com/start" target="_top" title="http://plantuml.com/start" xlink:actuate="onRequest" xlink:href="http://plantuml.com/start" xlink:show="new" xlink:title="http://plantuml.com/start" xlink:type="simple"><path d="M403,142.4297 L403,167.4297 L507,167.4297 L507,152.4297 L497,142.4297 L403,142.4297 " fill="#FBFB77" filter="url(#f152u9gvm6v3dm)" style="stroke:#A80036;stroke-width:1.0;"/><path d="M497,142.4297 L497,152.4297 L507,152.4297 L497,142.4297 " fill="#FBFB77" style="stroke:#A80036;stroke-width:1.0;"/><text fill="#000000" font-family="sans-serif" font-size="13" lengthAdjust="spacing" textLength="83" x="409" y="159.4966">another note</text></a><path d="M5,181.5625 L5,206.5625 L224,206.5625 L224,191.5625 L214,181.5625 L5,181.5625 " fill="#FBFB77" filter="url(#f152u9gvm6v3dm)" style="stroke:#A80036;stroke-width:1.0;"/><path d="M214,181.5625 L214,191.5625 L224,191.5625 L214,181.5625 " fill="#FBFB77" style="stroke:#A80036;stroke-width:1.0;"/><text fill="#000000" font-family="sans-serif" font-size="13" lengthAdjust="spacing" textLength="77" x="11" y="198.6294">You can use</text><a href="//plantuml.com/start" target="_top" title="//plantuml.com/start" xlink:actuate="onRequest" xlink:href="//plantuml.com/start" xlink:show="new" xlink:title="//plantuml.com/start" xlink:type="simple"><text fill="#0000FF" font-family="sans-serif" font-size="13" lengthAdjust="spacing" text-decoration="underline" textLength="83" x="92" y="198.6294">links in notes</text></a><text fill="#000000" font-family="sans-serif" font-size="13" lengthAdjust="spacing" textLength="30" x="179" y="198.6294">also.</text></g></svg>