<?xml version="1.0" encoding="UTF-8" standalone="no"?><svg xmlns="http://www.w3.org/2000/svg" xmlns:xlink="http://www.w3.org/1999/xlink" contentScriptType="application/ecmascript" contentStyleType="text/css" height="447px" preserveAspectRatio="none" style="width:572px;height:447px;background:#FFFFFF;" version="1.1" viewBox="0 0 572 447" width="572px" zoomAndPan="magnify"><defs><filter height="300%" id="f1ham28msu2cx7" width="300%" x="-1" y="-1"><feGaussianBlur result="blurOut" stdDeviation="2.0"/><feColorMatrix in="blurOut" result="blurOut2" type="matrix" values="0 0 0 0 0 0 0 0 0 0 0 0 0 0 0 0 0 0 .4 0"/><feOffset dx="4.0" dy="4.0" in="blurOut2" result="blurOut3"/><feBlend in="SourceGraphic" in2="blurOut3" mode="normal"/></filter></defs><g><text fill="#000000" font-family="sans-serif" font-size="18" lengthAdjust="spacing" textLength="249" x="164" y="28.708">Example Sequence Diagram</text><rect fill="#FFFFFF" filter="url(#f1ham28msu2cx7)" height="165.2734" style="stroke:#000000;stroke-width:2.0;" width="326" x="10" y="221.7813"/><rect fill="#FFFFFF" height="75.0703" style="stroke:none;stroke-width:1.0;" width="326" x="10" y="268.0469"/><rect fill="#FFFFFF" filter="url(#f1ham28msu2cx7)" height="46.2656" style="stroke:#000000;stroke-width:2.0;" width="306" x="20" y="289.8516"/><rect fill="#FFFFFF" height="43.9375" style="stroke:none;stroke-width:1.0;" width="326" x="10" y="343.1172"/><line style="stroke:#A80036;stroke-width:1.0;stroke-dasharray:5.0,5.0;" x1="68" x2="68" y1="75.25" y2="404.0547"/><line style="stroke:#A80036;stroke-width:1.0;stroke-dasharray:5.0,5.0;" x1="278" x2="278" y1="75.25" y2="404.0547"/><rect fill="#FEFECE" filter="url(#f1ham28msu2cx7)" height="30.2969" style="stroke:#A80036;stroke-width:1.5;" width="72" x="30" y="39.9531"/><text fill="#000000" font-family="sans-serif" font-size="14" lengthAdjust="spacing" textLength="58" x="37" y="59.9482">Thread1</text><rect fill="#FEFECE" filter="url(#f1ham28msu2cx7)" height="30.2969" style="stroke:#A80036;stroke-width:1.5;" width="72" x="30" y="403.0547"/><text fill="#000000" font-family="sans-serif" font-size="14" lengthAdjust="spacing" textLength="58" x="37" y="423.0498">Thread1</text><rect fill="#FEFECE" filter="url(#f1ham28msu2cx7)" height="30.2969" style="stroke:#A80036;stroke-width:1.5;" width="72" x="240" y="39.9531"/><text fill="#000000" font-family="sans-serif" font-size="14" lengthAdjust="spacing" textLength="58" x="247" y="59.9482">Thread2</text><rect fill="#FEFECE" filter="url(#f1ham28msu2cx7)" height="30.2969" style="stroke:#A80036;stroke-width:1.5;" width="72" x="240" y="403.0547"/><text fill="#000000" font-family="sans-serif" font-size="14" lengthAdjust="spacing" textLength="58" x="247" y="423.0498">Thread2</text><polygon fill="#A80036" points="266,102.3828,276,106.3828,266,110.3828,270,106.3828" style="stroke:#A80036;stroke-width:1.0;"/><line style="stroke:#A80036;stroke-width:1.0;" x1="68" x2="272" y1="106.3828" y2="106.3828"/><text fill="#000000" font-family="sans-serif" font-size="13" font-weight="bold" lengthAdjust="spacing" textLength="21" x="75" y="101.3169">[1]</text><text fill="#000000" font-family="sans-serif" font-size="13" lengthAdjust="spacing" textLength="109" x="100" y="101.3169">Blocking Request</text><polygon fill="#A80036" points="79,114.3828,69,118.3828,79,122.3828,75,118.3828" style="stroke:#A80036;stroke-width:1.0;"/><line style="stroke:#A80036;stroke-width:1.0;stroke-dasharray:2.0,2.0;" x1="73" x2="277" y1="118.3828" y2="118.3828"/><text fill="#000000" font-family="sans-serif" font-size="13" font-weight="bold" lengthAdjust="spacing" textLength="21" x="85" y="131.4497">[2]</text><text fill="#000000" font-family="sans-serif" font-size="13" lengthAdjust="spacing" textLength="62" x="110" y="131.4497">Response</text><line style="stroke:#A80036;stroke-width:1.0;" x1="276" x2="266" y1="164.6484" y2="160.6484"/><line style="stroke:#A80036;stroke-width:1.0;" x1="276" x2="266" y1="164.6484" y2="168.6484"/><line style="stroke:#A80036;stroke-width:1.0;" x1="68" x2="277" y1="164.6484" y2="164.6484"/><text fill="#000000" font-family="sans-serif" font-size="13" font-weight="bold" lengthAdjust="spacing" textLength="21" x="75" y="159.5825">[3]</text><text fill="#000000" font-family="sans-serif" font-size="13" lengthAdjust="spacing" textLength="145" x="100" y="159.5825">Non-Blocking Message</text><line style="stroke:#A80036;stroke-width:1.0;" x1="68" x2="110" y1="193.7813" y2="193.7813"/><line style="stroke:#A80036;stroke-width:1.0;" x1="110" x2="110" y1="193.7813" y2="206.7813"/><line style="stroke:#A80036;stroke-width:1.0;" x1="69" x2="110" y1="206.7813" y2="206.7813"/><polygon fill="#A80036" points="79,202.7813,69,206.7813,79,210.7813,75,206.7813" style="stroke:#A80036;stroke-width:1.0;"/><text fill="#000000" font-family="sans-serif" font-size="13" font-weight="bold" lengthAdjust="spacing" textLength="21" x="75" y="188.7153">[4]</text><text fill="#000000" font-family="sans-serif" font-size="13" lengthAdjust="spacing" textLength="171" x="100" y="188.7153">Sometimes I talk to myself</text><path d="M283,179.1484 L283,204.1484 L563,204.1484 L563,189.1484 L553,179.1484 L283,179.1484 " fill="#FBFB77" filter="url(#f1ham28msu2cx7)" style="stroke:#A80036;stroke-width:1.0;"/><path d="M553,179.1484 L553,189.1484 L563,189.1484 L553,179.1484 " fill="#FBFB77" style="stroke:#A80036;stroke-width:1.0;"/><text fill="#000000" font-family="sans-serif" font-size="13" lengthAdjust="spacing" textLength="259" x="289" y="196.2153">Maybe something you sent on a channel</text><path d="M10,221.7813 L74,221.7813 L74,228.7813 L64,238.7813 L10,238.7813 L10,221.7813 " fill="#EEEEEE" style="stroke:#000000;stroke-width:1.0;"/><rect fill="none" height="165.2734" style="stroke:#000000;stroke-width:2.0;" width="326" x="10" y="221.7813"/><text fill="#000000" font-family="sans-serif" font-size="13" font-weight="bold" lengthAdjust="spacing" textLength="19" x="25" y="234.8481">alt</text><text fill="#000000" font-family="sans-serif" font-size="11" font-weight="bold" lengthAdjust="spacing" textLength="75" x="89" y="233.9917">[sunny day]</text><line style="stroke:#008000;stroke-width:1.0;" x1="276" x2="266" y1="260.0469" y2="256.0469"/><line style="stroke:#008000;stroke-width:1.0;" x1="276" x2="266" y1="260.0469" y2="264.0469"/><line style="stroke:#008000;stroke-width:1.0;" x1="68" x2="277" y1="260.0469" y2="260.0469"/><text fill="#000000" font-family="sans-serif" font-size="13" font-weight="bold" lengthAdjust="spacing" textLength="21" x="75" y="254.981">[5]</text><text fill="#000000" font-family="sans-serif" font-size="13" font-weight="bold" lengthAdjust="spacing" textLength="90" x="100" y="254.981">green arrow</text><line style="stroke:#000000;stroke-width:1.0;stroke-dasharray:2.0,2.0;" x1="10" x2="336" y1="269.0469" y2="269.0469"/><text fill="#000000" font-family="sans-serif" font-size="11" font-weight="bold" lengthAdjust="spacing" textLength="64" x="15" y="279.2573">[it rained]</text><path d="M20,289.8516 L97,289.8516 L97,296.8516 L87,306.8516 L20,306.8516 L20,289.8516 " fill="#EEEEEE" style="stroke:#000000;stroke-width:1.0;"/><rect fill="none" height="46.2656" style="stroke:#000000;stroke-width:2.0;" width="306" x="20" y="289.8516"/><text fill="#000000" font-family="sans-serif" font-size="13" font-weight="bold" lengthAdjust="spacing" textLength="32" x="35" y="302.9185">loop</text><text fill="#000000" font-family="sans-serif" font-size="11" font-weight="bold" lengthAdjust="spacing" textLength="81" x="112" y="302.062">[1000 times]</text><line style="stroke:#0000FF;stroke-width:1.0;" x1="276" x2="266" y1="328.1172" y2="324.1172"/><line style="stroke:#0000FF;stroke-width:1.0;" x1="276" x2="266" y1="328.1172" y2="332.1172"/><line style="stroke:#0000FF;stroke-width:1.0;" x1="68" x2="277" y1="328.1172" y2="328.1172"/><text fill="#000000" font-family="sans-serif" font-size="13" font-weight="bold" lengthAdjust="spacing" textLength="21" x="75" y="323.0513">[6]</text><text fill="#000000" font-family="sans-serif" font-size="13" lengthAdjust="spacing" text-decoration="underline" textLength="66" x="100" y="323.0513">blue arrow</text><line style="stroke:#000000;stroke-width:1.0;stroke-dasharray:2.0,2.0;" x1="10" x2="336" y1="344.1172" y2="344.1172"/><text fill="#000000" font-family="sans-serif" font-size="11" font-weight="bold" lengthAdjust="spacing" textLength="73" x="15" y="354.3276">[it snowed]</text><line style="stroke:#A80036;stroke-width:1.0;" x1="276" x2="266" y1="379.0547" y2="375.0547"/><line style="stroke:#A80036;stroke-width:1.0;" x1="276" x2="266" y1="379.0547" y2="383.0547"/><line style="stroke:#A80036;stroke-width:1.0;" x1="68" x2="277" y1="379.0547" y2="379.0547"/><text fill="#000000" font-family="sans-serif" font-size="13" font-weight="bold" lengthAdjust="spacing" textLength="21" x="75" y="373.9888">[7]</text><text fill="#000000" font-family="sans-serif" font-size="13" font-style="italic" lengthAdjust="spacing" textLength="93" x="100" y="373.9888">snowing italics</text></g></svg>