<?xml version="1.0" encoding="UTF-8" standalone="no"?><svg xmlns="http://www.w3.org/2000/svg" xmlns:xlink="http://www.w3.org/1999/xlink" contentScriptType="application/ecmascript" contentStyleType="text/css" height="418px" preserveAspectRatio="none" style="width:249px;height:418px;background:#FFFFFF;" version="1.1" viewBox="0 0 249 418" width="249px" zoomAndPan="magnify"><defs><filter height="300%" id="fznu91valujih" width="300%" x="-1" y="-1"><feGaussianBlur result="blurOut" stdDeviation="2.0"/><feColorMatrix in="blurOut" result="blurOut2" type="matrix" values="0 0 0 0 0 0 0 0 0 0 0 0 0 0 0 0 0 0 .4 0"/><feOffset dx="4.0" dy="4.0" in="blurOut2" result="blurOut3"/><feBlend in="SourceGraphic" in2="blurOut3" mode="normal"/></filter></defs><g><line style="stroke:#A80036;stroke-width:1.0;stroke-dasharray:5.0,5.0;" x1="43" x2="43" y1="40.2969" y2="375.625"/><line style="stroke:#A80036;stroke-width:1.0;stroke-dasharray:5.0,5.0;" x1="165" x2="165" y1="40.2969" y2="375.625"/><rect fill="#FEFECE" filter="url(#fznu91valujih)" height="30.2969" style="stroke:#A80036;stroke-width:1.5;" width="72" x="5" y="5"/><text fill="#000000" font-family="sans-serif" font-size="14" lengthAdjust="spacing" textLength="58" x="12" y="24.9951">Thread1</text><rect fill="#FEFECE" filter="url(#fznu91valujih)" height="30.2969" style="stroke:#A80036;stroke-width:1.5;" width="72" x="5" y="374.625"/><text fill="#000000" font-family="sans-serif" font-size="14" lengthAdjust="spacing" textLength="58" x="12" y="394.6201">Thread1</text><rect fill="#FEFECE" filter="url(#fznu91valujih)" height="30.2969" style="stroke:#A80036;stroke-width:1.5;" width="72" x="127" y="5"/><text fill="#000000" font-family="sans-serif" font-size="14" lengthAdjust="spacing" textLength="58" x="134" y="24.9951">Thread2</text><rect fill="#FEFECE" filter="url(#fznu91valujih)" height="30.2969" style="stroke:#A80036;stroke-width:1.5;" width="72" x="127" y="374.625"/><text fill="#000000" font-family="sans-serif" font-size="14" lengthAdjust="spacing" textLength="58" x="134" y="394.6201">Thread2</text><line style="stroke:#A80036;stroke-width:2.0;" x1="147" x2="157" y1="66.4297" y2="76.4297"/><line style="stroke:#A80036;stroke-width:2.0;" x1="147" x2="157" y1="76.4297" y2="66.4297"/><line style="stroke:#A80036;stroke-width:1.0;" x1="43" x2="152" y1="71.4297" y2="71.4297"/><text fill="#000000" font-family="sans-serif" font-size="13" lengthAdjust="spacing" textLength="23" x="92.5" y="66.3638">-&gt;x</text><polygon fill="#A80036" points="153,96.5625,163,100.5625,153,104.5625,157,100.5625" style="stroke:#A80036;stroke-width:1.0;"/><line style="stroke:#A80036;stroke-width:1.0;" x1="43" x2="159" y1="100.5625" y2="100.5625"/><text fill="#000000" font-family="sans-serif" font-size="13" lengthAdjust="spacing" textLength="16" x="96" y="95.4966">-&gt;</text><line style="stroke:#A80036;stroke-width:1.0;" x1="163" x2="153" y1="129.6953" y2="125.6953"/><line style="stroke:#A80036;stroke-width:1.0;" x1="163" x2="153" y1="129.6953" y2="133.6953"/><line style="stroke:#A80036;stroke-width:1.0;" x1="43" x2="164" y1="129.6953" y2="129.6953"/><text fill="#000000" font-family="sans-serif" font-size="13" lengthAdjust="spacing" textLength="27" x="90.5" y="124.6294">-&gt;&gt;</text><path d="M10,142.6953 L10,167.6953 L72,167.6953 L72,152.6953 L62,142.6953 L10,142.6953 " fill="#FBFB77" filter="url(#fznu91valujih)" style="stroke:#A80036;stroke-width:1.0;"/><path d="M62,142.6953 L62,152.6953 L72,152.6953 L62,142.6953 " fill="#FBFB77" style="stroke:#A80036;stroke-width:1.0;"/><text fill="#000000" font-family="sans-serif" font-size="13" lengthAdjust="spacing" textLength="41" x="16" y="159.7622">a note</text><path d="M86,142.6953 L86,167.6953 L240,167.6953 L240,152.6953 L230,142.6953 L86,142.6953 " fill="#FBFB77" filter="url(#fznu91valujih)" style="stroke:#A80036;stroke-width:1.0;"/><path d="M230,142.6953 L230,152.6953 L240,152.6953 L230,142.6953 " fill="#FBFB77" style="stroke:#A80036;stroke-width:1.0;"/><text fill="#000000" font-family="sans-serif" font-size="13" lengthAdjust="spacing" textLength="133" x="92" y="159.7622">another aligned note</text><polygon fill="#A80036" points="153,178.8281,163,182.8281,153,182.8281" style="stroke:#A80036;stroke-width:1.0;"/><line style="stroke:#A80036;stroke-width:1.0;" x1="43" x2="164" y1="182.8281" y2="182.8281"/><line style="stroke:#A80036;stroke-width:1.0;" x1="43" x2="53" y1="211.9609" y2="215.9609"/><line style="stroke:#A80036;stroke-width:1.0;" x1="43" x2="164" y1="211.9609" y2="211.9609"/><text fill="#000000" font-family="sans-serif" font-size="13" lengthAdjust="spacing" textLength="9" x="99.5" y="206.895">\-</text><line style="stroke:#A80036;stroke-width:1.0;" x1="43" x2="53" y1="241.0938" y2="237.0938"/><line style="stroke:#A80036;stroke-width:1.0;stroke-dasharray:2.0,2.0;" x1="43" x2="164" y1="241.0938" y2="241.0938"/><text fill="#000000" font-family="sans-serif" font-size="13" lengthAdjust="spacing" textLength="18" x="95" y="236.0278">//--</text><ellipse cx="164.5" cy="269.4766" rx="4" ry="4" style="stroke:#A80036;stroke-width:1.5;fill:none;"/><polygon fill="#A80036" points="147.5,266.2266,157.5,270.2266,147.5,274.2266,151.5,270.2266" style="stroke:#A80036;stroke-width:1.0;"/><line style="stroke:#A80036;stroke-width:1.0;" x1="43" x2="153.5" y1="270.2266" y2="270.2266"/><text fill="#000000" font-family="sans-serif" font-size="13" lengthAdjust="spacing" textLength="24" x="92" y="265.1606">-&gt;o</text><ellipse cx="42.5" cy="298.6094" rx="4" ry="4" style="stroke:#A80036;stroke-width:1.5;fill:none;"/><line style="stroke:#A80036;stroke-width:1.0;fill:none;" x1="48.5" x2="58.5" y1="299.3594" y2="303.3594"/><line style="stroke:#A80036;stroke-width:1.0;fill:none;stroke-dasharray:2.0,2.0;" x1="43" x2="164" y1="299.3594" y2="299.3594"/><text fill="#000000" font-family="sans-serif" font-size="13" lengthAdjust="spacing" textLength="17" x="95.5" y="294.2935">o\-</text><polygon fill="#A80036" points="54,324.4922,44,328.4922,54,332.4922,50,328.4922" style="stroke:#A80036;stroke-width:1.0;"/><polygon fill="#A80036" points="153,324.4922,163,328.4922,153,332.4922,157,328.4922" style="stroke:#A80036;stroke-width:1.0;"/><line style="stroke:#A80036;stroke-width:1.0;" x1="48" x2="159" y1="328.4922" y2="328.4922"/><text fill="#000000" font-family="sans-serif" font-size="13" lengthAdjust="spacing" textLength="27" x="90.5" y="323.4263">&lt;-&gt;</text><polygon fill="#A80036" points="54,353.625,44,357.625,54,361.625,50,357.625" style="stroke:#A80036;stroke-width:1.0;"/><ellipse cx="164.5" cy="356.875" rx="4" ry="4" style="stroke:#A80036;stroke-width:1.5;fill:none;"/><polygon fill="#A80036" points="147.5,353.625,157.5,357.625,147.5,361.625,151.5,357.625" style="stroke:#A80036;stroke-width:1.0;"/><line style="stroke:#A80036;stroke-width:1.0;" x1="48" x2="153.5" y1="357.625" y2="357.625"/><text fill="#000000" font-family="sans-serif" font-size="13" lengthAdjust="spacing" textLength="35" x="86.5" y="352.5591">&lt;-&gt;o</text></g></svg>